<svg width="48" height="48" viewBox="0 0 48 48" fill="none" xmlns="http://www.w3.org/2000/svg">
<path d="M20.0479 9.43399C21.2438 10.5342 21.7812 11.9541 22.359 13.4315C23.1368 15.5331 23.1368 15.5331 24.7382 16.9826C26.6324 17.5936 28.9329 16.6036 30.6865 15.9109C32.1462 15.3953 33.8942 15.5478 35.3039 16.1273C36.8968 16.9339 37.952 18.2658 38.5229 19.9403C38.8947 21.5063 38.719 23.1525 37.9558 24.5682C37.0461 26.0322 35.7942 26.9573 34.1453 27.4414C32.4516 27.7779 30.8025 27.5069 29.3396 26.5891C27.7206 25.4232 27.0923 23.9065 26.3499 22.1206C25.4565 19.8633 25.4565 19.8633 23.5921 18.4275C22.0439 18.1564 20.373 18.8651 18.9261 19.3587C17.0036 20.0094 15.2504 20.2264 13.3416 19.3622C11.8499 18.6133 10.8608 17.4614 10.2665 15.9014C9.79805 14.3024 9.96021 12.6802 10.6502 11.1691C11.408 9.79754 12.5722 8.80281 14.0556 8.28339C16.1826 7.6719 18.3065 8.04757 20.0479 9.43399Z" fill="white"/>
<path d="M27.6365 28.7314C28.7352 29.7352 29.3436 31.2112 29.4546 32.6753C29.5074 34.3205 28.9966 35.9895 27.8648 37.2168C26.3936 38.5817 24.8146 39.0315 22.8557 38.9984C21.3293 38.9356 19.8826 38.1895 18.8354 37.0849C17.6539 35.6222 17.2469 34.0303 17.4045 32.1847C17.732 30.5452 18.504 29.1162 19.8751 28.1359C22.3828 26.5347 25.3959 26.8115 27.6365 28.7314Z" fill="white"/>
</svg>
