<svg width="969" height="77" viewBox="0 0 969 77" fill="none" xmlns="http://www.w3.org/2000/svg">
<path d="M30.3333 35.2139V42.9655ZM16.1667 19.7107V58.4686ZM44.5 15.835V62.3444ZM58.6667 27.4623V50.717ZM72.8333 19.7107V58.4686ZM87 35.2139V42.9655ZM2 35.2139V42.9655Z" fill="url(#paint0_linear_874_585)" fill-opacity="0.52"/>
<path d="M30.3333 35.2139V42.9655M16.1667 19.7107V58.4686M44.5 15.835V62.3444M58.6667 27.4623V50.717M72.8333 19.7107V58.4686M87 35.2139V42.9655M2 35.2139V42.9655" stroke="white" stroke-opacity="0.9" stroke-width="4" stroke-linecap="round" stroke-linejoin="round"/>
<path d="M115.333 25V55ZM101.167 27.5V52.5ZM129.5 25V55ZM143.667 32.5V47.5ZM157.833 27.5V52.5ZM172 37.5V42.5ZM87 37.5V42.5Z" fill="url(#paint1_linear_874_585)" fill-opacity="0.52"/>
<path d="M115.333 25V55M101.167 27.5V52.5M129.5 25V55M143.667 32.5V47.5M157.833 27.5V52.5M172 37.5V42.5M87 37.5V42.5" stroke="white" stroke-opacity="0.9" stroke-width="4" stroke-linecap="round" stroke-linejoin="round"/>
<path d="M211.333 20V59ZM197.167 28.6667V50.3333ZM225.5 26.5V52.5ZM239.667 33V46ZM253.833 28.6667V50.3333ZM268 37.3333V41.6667ZM183 37.3333V41.6667Z" fill="url(#paint2_linear_874_585)" fill-opacity="0.52"/>
<path d="M211.333 20V59M197.167 28.6667V50.3333M225.5 26.5V52.5M239.667 33V46M253.833 28.6667V50.3333M268 37.3333V41.6667M183 37.3333V41.6667" stroke="white" stroke-opacity="0.9" stroke-width="4" stroke-linecap="round" stroke-linejoin="round"/>
<path d="M307.333 21.4434V56.7358ZM293.167 29.2861V48.893ZM321.5 27.3254V50.8537ZM335.667 33.2075V44.9717ZM349.833 29.2861V48.893ZM364 37.1289V41.0503ZM279 37.1289V41.0503Z" fill="url(#paint3_linear_874_585)" fill-opacity="0.52"/>
<path d="M307.333 21.4434V56.7358M293.167 29.2861V48.893M321.5 27.3254V50.8537M335.667 33.2075V44.9717M349.833 29.2861V48.893M364 37.1289V41.0503M279 37.1289V41.0503" stroke="white" stroke-opacity="0.9" stroke-width="4" stroke-linecap="round" stroke-linejoin="round"/>
<path d="M403.333 2.00003V75ZM389.167 8.08333V68.9167ZM417.5 2V75ZM431.667 20.25V56.75ZM445.833 8.08333V68.9167ZM460 32.4167V44.5833ZM375 32.4167V44.5833Z" fill="url(#paint4_linear_874_585)" fill-opacity="0.52"/>
<path d="M403.333 2.00003V75M389.167 8.08333V68.9167M417.5 2V75M431.667 20.25V56.75M445.833 8.08333V68.9167M460 32.4167V44.5833M375 32.4167V44.5833" stroke="white" stroke-opacity="0.9" stroke-width="4" stroke-linecap="round" stroke-linejoin="round"/>
<path d="M488.333 32.1133V44.4246ZM474.167 33.1392V43.3987ZM502.5 32.1133V44.4246ZM516.667 35.1911V41.3468ZM530.833 33.1392V43.3987ZM545 37.243V39.2949ZM460 37.243V39.2949Z" fill="url(#paint5_linear_874_585)" fill-opacity="0.52"/>
<path d="M488.333 32.1133V44.4246M474.167 33.1392V43.3987M502.5 32.1133V44.4246M516.667 35.1911V41.3468M530.833 33.1392V43.3987M545 37.243V39.2949M460 37.243V39.2949" stroke="white" stroke-opacity="0.9" stroke-width="4" stroke-linecap="round" stroke-linejoin="round"/>
<path d="M573.333 34.2139V41.9655ZM559.167 18.7107V57.4686ZM587.5 14.835V61.3444ZM601.667 26.4623V49.717ZM615.833 18.7107V57.4686ZM630 34.2139V41.9655ZM545 34.2139V41.9655Z" fill="url(#paint6_linear_874_585)" fill-opacity="0.52"/>
<path d="M573.333 34.2139V41.9655M559.167 18.7107V57.4686M587.5 14.835V61.3444M601.667 26.4623V49.717M615.833 18.7107V57.4686M630 34.2139V41.9655M545 34.2139V41.9655" stroke="white" stroke-opacity="0.9" stroke-width="4" stroke-linecap="round" stroke-linejoin="round"/>
<path d="M658.333 24V54ZM644.167 26.5V51.5ZM672.5 24V54ZM686.667 31.5V46.5ZM700.833 26.5V51.5ZM715 36.5V41.5ZM630 36.5V41.5Z" fill="url(#paint7_linear_874_585)" fill-opacity="0.52"/>
<path d="M658.333 24V54M644.167 26.5V51.5M672.5 24V54M686.667 31.5V46.5M700.833 26.5V51.5M715 36.5V41.5M630 36.5V41.5" stroke="white" stroke-opacity="0.9" stroke-width="4" stroke-linecap="round" stroke-linejoin="round"/>
<path d="M743.333 21.4434V56.7358ZM729.167 29.2861V48.893ZM757.5 27.3254V50.8537ZM771.667 33.2075V44.9717ZM785.833 29.2861V48.893ZM800 37.1289V41.0503ZM715 37.1289V41.0503Z" fill="url(#paint8_linear_874_585)" fill-opacity="0.52"/>
<path d="M743.333 21.4434V56.7358M729.167 29.2861V48.893M757.5 27.3254V50.8537M771.667 33.2075V44.9717M785.833 29.2861V48.893M800 37.1289V41.0503M715 37.1289V41.0503" stroke="white" stroke-opacity="0.9" stroke-width="4" stroke-linecap="round" stroke-linejoin="round"/>
<path d="M839.333 2.00003V75ZM825.167 8.08333V68.9167ZM853.5 2V75ZM867.667 20.25V56.75ZM881.833 8.08333V68.9167ZM896 32.4167V44.5833ZM811 32.4167V44.5833Z" fill="url(#paint9_linear_874_585)" fill-opacity="0.52"/>
<path d="M839.333 2.00003V75M825.167 8.08333V68.9167M853.5 2V75M867.667 20.25V56.75M881.833 8.08333V68.9167M896 32.4167V44.5833M811 32.4167V44.5833" stroke="white" stroke-opacity="0.9" stroke-width="4" stroke-linecap="round" stroke-linejoin="round"/>
<defs>
<linearGradient id="paint0_linear_874_585" x1="4.33232" y1="32.3816" x2="93.9897" y2="37.6393" gradientUnits="userSpaceOnUse">
<stop stop-color="#FF2FCB"/>
<stop offset="1" stop-color="#FFD4ED"/>
</linearGradient>
<linearGradient id="paint1_linear_874_585" x1="89.3323" y1="37.1154" x2="177.655" y2="49.1602" gradientUnits="userSpaceOnUse">
<stop stop-color="#2FFF89"/>
<stop offset="1" stop-color="#D4F8FF"/>
</linearGradient>
<linearGradient id="paint2_linear_874_585" x1="185.332" y1="35.75" x2="274.319" y2="45.0848" gradientUnits="userSpaceOnUse">
<stop stop-color="#2FFF89"/>
<stop offset="1" stop-color="#D4F8FF"/>
</linearGradient>
<linearGradient id="paint3_linear_874_585" x1="281.332" y1="35.6961" x2="370.105" y2="45.9868" gradientUnits="userSpaceOnUse">
<stop stop-color="#2FFF89"/>
<stop offset="1" stop-color="#D4F8FF"/>
</linearGradient>
<linearGradient id="paint4_linear_874_585" x1="377.332" y1="31.4808" x2="467.016" y2="36.507" gradientUnits="userSpaceOnUse">
<stop stop-color="#2FFF89"/>
<stop offset="1" stop-color="#D4F8FF"/>
</linearGradient>
<linearGradient id="paint5_linear_874_585" x1="462.332" y1="37.0852" x2="543.351" y2="64.0085" gradientUnits="userSpaceOnUse">
<stop stop-color="#2FFF89"/>
<stop offset="1" stop-color="#D4F8FF"/>
</linearGradient>
<linearGradient id="paint6_linear_874_585" x1="547.332" y1="31.3816" x2="636.99" y2="36.6393" gradientUnits="userSpaceOnUse">
<stop stop-color="#FF2FCB"/>
<stop offset="1" stop-color="#FFD4ED"/>
</linearGradient>
<linearGradient id="paint7_linear_874_585" x1="632.332" y1="36.1154" x2="720.655" y2="48.1602" gradientUnits="userSpaceOnUse">
<stop stop-color="#2FFF89"/>
<stop offset="1" stop-color="#D4F8FF"/>
</linearGradient>
<linearGradient id="paint8_linear_874_585" x1="717.332" y1="35.6961" x2="806.105" y2="45.9868" gradientUnits="userSpaceOnUse">
<stop stop-color="#2FFF89"/>
<stop offset="1" stop-color="#D4F8FF"/>
</linearGradient>
<linearGradient id="paint9_linear_874_585" x1="813.332" y1="31.4808" x2="903.016" y2="36.507" gradientUnits="userSpaceOnUse">
<stop stop-color="#2FFF89"/>
<stop offset="1" stop-color="#D4F8FF"/>
</linearGradient>
</defs>
</svg>
