<svg width="48" height="48" viewBox="0 0 48 48" fill="none" xmlns="http://www.w3.org/2000/svg">
<path d="M24.5303 11C24.8717 11.0372 25.176 11.1232 25.5 11.2354C25.5692 11.2587 25.569 11.2594 25.6396 11.2832C25.9411 11.3857 26.2394 11.4953 26.5371 11.6084C26.576 11.6226 26.6152 11.6367 26.6553 11.6514C26.9458 11.7643 27.0766 11.8836 27.2061 12.165C27.2238 12.2121 27.2415 12.2592 27.2598 12.3076C27.2807 12.3617 27.3017 12.4159 27.3232 12.4717C27.345 12.528 27.3663 12.5846 27.3887 12.6426C27.5894 13.1424 27.8096 13.6333 28.0312 14.124C28.3349 14.7964 28.6319 15.4694 28.9014 16.1562C29.006 16.4198 29.1273 16.6695 29.2578 16.9209C29.3717 17.1566 29.4647 17.4007 29.5596 17.6445C29.6887 17.9738 29.8364 18.2907 29.9922 18.6084C30.0673 18.7902 30.1014 18.9558 30.126 19.1504H30.2471C30.2789 19.2259 30.3109 19.3014 30.3428 19.377C30.3734 19.4496 30.374 19.4503 30.4053 19.5244C30.4498 19.6301 30.4947 19.7361 30.5391 19.8418C30.6364 20.0737 30.7336 20.3056 30.834 20.5361C30.8612 20.5992 30.888 20.6626 30.916 20.7275C30.9398 20.7819 30.9638 20.8365 30.9883 20.8926C31.0377 21.0353 31.0381 21.0355 31.0381 21.2783H31.1602C31.1821 21.3328 31.1818 21.3333 31.2041 21.3887C31.4532 22.0053 31.7028 22.6195 31.9873 23.2207C32.0835 23.4322 32.1701 23.6471 32.2549 23.8633C32.4514 24.3633 32.6762 24.8491 32.9092 25.333C33.1787 25.8966 33.3952 26.4638 33.5928 27.0566H33.7139C33.7376 27.0054 33.7377 27.0052 33.7617 26.9531C33.8428 26.7996 33.9373 26.6677 34.041 26.5283C34.2659 26.2226 34.4869 25.9143 34.7061 25.6045C34.7374 25.5604 34.7695 25.5162 34.8018 25.4707C34.9277 25.2924 35.0482 25.1171 35.1572 24.9277C35.1826 24.8879 35.2082 24.8477 35.2344 24.8066H35.3564C35.3713 24.7639 35.3861 24.7208 35.4014 24.6768C35.4885 24.4784 35.599 24.3218 35.7285 24.1484C35.7726 24.0891 35.8169 24.0299 35.8623 23.9688C35.896 23.924 35.9301 23.8791 35.9648 23.833C35.7099 23.3111 35.4488 22.7982 35.1514 22.2988C35.0259 22.0866 34.9093 21.8701 34.792 21.6533C34.0543 20.2969 33.2856 18.9571 32.5254 17.6133C32.4902 17.5511 32.4552 17.4888 32.4189 17.4248C32.3521 17.3066 32.2847 17.1885 32.2178 17.0703C32.0759 16.8194 31.9348 16.568 31.7959 16.3154C31.6952 16.1335 31.5903 15.9546 31.4814 15.7773C31.4414 15.7117 31.4413 15.7115 31.4004 15.6445C31.3455 15.5549 31.2903 15.465 31.2344 15.376C31.2082 15.3327 31.1813 15.2897 31.1543 15.2451C31.1304 15.2066 31.1066 15.1677 31.082 15.1279C31.038 15.0144 31.0378 15.0142 31.0459 14.8896C31.222 14.4937 31.882 14.2786 32.2549 14.1055C32.3373 14.0667 32.3377 14.0669 32.4219 14.0273C32.9269 13.7921 33.4395 13.5781 33.957 13.3721C34.0206 13.3456 34.0849 13.3192 34.1504 13.292C34.2046 13.2695 34.2586 13.2468 34.3145 13.2236C34.3595 13.2049 34.4048 13.1863 34.4512 13.167C34.5656 13.1288 34.5657 13.1289 34.748 13.1289C35.2308 14.2046 35.2312 14.2044 35.4258 14.7041C35.4946 14.8714 35.575 15.0313 35.6592 15.1914C35.7273 15.3294 35.7866 15.4706 35.8467 15.6123C35.9712 15.9022 36.1019 16.1895 36.2305 16.4775C36.5213 17.1302 36.808 17.7852 37.0908 18.4414C37.3247 18.984 37.5621 19.5248 37.8115 20.0605C37.9138 20.2834 37.9992 20.4859 38.0322 20.7314H38.1543C38.1682 20.6905 38.1819 20.6496 38.1963 20.6074C38.2971 20.3787 38.4308 20.1838 38.5723 19.9785C38.771 19.6884 38.9561 19.3964 39.127 19.0889H39.249C39.2554 19.055 39.262 19.0212 39.2686 18.9863C39.3178 18.8201 39.3932 18.6984 39.4873 18.5527C39.5235 18.4964 39.5594 18.4399 39.5967 18.3818C39.6349 18.3231 39.6736 18.2637 39.7129 18.2031C39.7496 18.1461 39.7864 18.089 39.8242 18.0303C39.8986 17.9147 39.9731 17.799 40.0479 17.6836C40.1982 17.4501 40.3457 17.2148 40.4932 16.9795C40.5729 16.8592 40.6547 16.7524 40.75 16.6445C40.8648 16.5049 40.9285 16.4063 41.0029 16.2471C41.1239 15.9996 41.2667 15.7762 41.4229 15.5498C41.6599 15.2003 41.886 14.8462 42.1055 14.4854C42.3233 14.1311 42.5503 13.7817 42.7764 13.4326C42.9756 13.473 43.132 13.5463 43.3096 13.6445C43.3669 13.676 43.4243 13.7078 43.4834 13.7402C43.5755 13.7912 43.5758 13.7916 43.6699 13.8438C44.4406 14.2661 45.2189 14.6724 46 15.0752V15.2578H45.8779C45.8543 15.3225 45.8541 15.3227 45.8301 15.3887C45.7527 15.57 45.6598 15.724 45.5518 15.8887C45.3885 16.1406 45.2337 16.3939 45.0879 16.6562H44.9658C44.9516 16.7081 44.9375 16.7601 44.9229 16.8135C44.8343 17.0476 44.7086 17.2298 44.5596 17.4277C44.5041 17.5033 44.4487 17.5795 44.3936 17.6553C44.3666 17.6923 44.3393 17.7294 44.3115 17.7676C44.1729 17.9618 44.0474 18.164 43.9209 18.3662C43.792 18.57 43.6594 18.7713 43.5254 18.9717C43.5 19.0097 43.4744 19.0478 43.4482 19.0869C43.3663 19.2094 43.2842 19.3317 43.2021 19.4541C42.6948 20.2107 42.6944 20.2107 42.1982 20.9746C42.0319 21.2351 41.8633 21.4941 41.6914 21.751C41.6336 21.8374 41.5761 21.9241 41.5186 22.0107C41.3591 22.2507 41.1982 22.4903 41.0361 22.7285C40.8885 22.9455 40.7418 23.1637 40.5957 23.3818C40.5366 23.4696 40.4768 23.5572 40.417 23.6445C40.3321 23.7684 40.2493 23.8936 40.166 24.0186C40.1401 24.0557 40.1136 24.0926 40.0869 24.1309C39.9662 24.3149 39.9167 24.4192 39.9287 24.6416C39.9783 24.8048 40.0347 24.9254 40.127 25.0684C40.3041 25.3507 40.4751 25.6362 40.6436 25.9238C40.6968 26.0146 40.7504 26.1055 40.8037 26.1963C40.8291 26.2396 40.8547 26.2835 40.8809 26.3281C40.9395 26.428 40.9988 26.5281 41.0576 26.6279C41.2985 27.0379 41.5324 27.4519 41.7656 27.8662C42.0082 28.297 42.2541 28.7249 42.5107 29.1475C42.7319 29.5129 42.9422 29.8846 43.1533 30.2559C43.4306 30.7429 43.7132 31.2272 43.9961 31.7109C44.2269 32.1059 44.4552 32.5024 44.6807 32.9004C44.8104 33.1253 44.9472 33.3459 45.0859 33.5654C45.1485 33.686 45.1484 33.6863 45.1484 33.8682C44.9988 33.9821 44.8508 34.0842 44.6924 34.1846C44.5929 34.249 44.493 34.3134 44.3936 34.3779C44.3126 34.4302 44.3123 34.43 44.2295 34.4834C44.0384 34.608 43.8492 34.7357 43.6602 34.8633C43.5617 34.9296 43.5612 34.9295 43.4609 34.9971C43.3301 35.0853 43.199 35.1742 43.0684 35.2627C43.0084 35.3029 42.9485 35.3433 42.8867 35.3848C42.8332 35.4209 42.7797 35.457 42.7246 35.4941C42.5943 35.5718 42.5939 35.5713 42.4727 35.5713C42.4526 35.6315 42.4318 35.6919 42.4111 35.7539C42.3041 35.7506 42.3037 35.7508 42.168 35.6934C42.0805 35.5489 42.01 35.4125 41.9404 35.2598C41.8978 35.1702 41.8544 35.0806 41.8115 34.9912C41.79 34.9458 41.7683 34.9003 41.7461 34.8535C41.6492 34.6538 41.5444 34.4586 41.4385 34.2637C41.2488 33.912 41.0679 33.5563 40.8906 33.1982C40.7535 32.9224 40.611 32.6501 40.4648 32.3789C40.2112 31.9075 39.9729 31.4288 39.7354 30.9492C39.4123 30.2974 39.0851 29.6485 38.7441 29.0059C38.4778 28.5025 38.2242 27.9929 37.9717 27.4824C37.7956 27.6484 37.6625 27.8131 37.5352 28.0186C37.5001 28.0746 37.4649 28.1307 37.4287 28.1885C37.3921 28.2476 37.3552 28.3072 37.3174 28.3682C37.0554 28.7859 36.791 29.1943 36.4951 29.5889C36.3442 29.7956 36.2098 30.012 36.0752 30.2295C35.9962 30.3531 35.9134 30.4744 35.8281 30.5938C35.783 30.6572 35.7369 30.7207 35.6904 30.7861C35.6277 30.8719 35.6277 30.8722 35.5635 30.96C35.4581 31.1717 35.4746 31.273 35.5391 31.4971C35.5971 31.5999 35.6585 31.7011 35.7217 31.8008C35.8386 32.0476 35.9033 32.1946 35.9033 32.4697H36.0254C36.0512 32.5389 36.0769 32.6084 36.1035 32.6797C36.307 33.2176 36.524 33.7327 36.7988 34.2383C36.8792 34.4208 36.9108 34.5238 36.877 34.7197C36.7941 34.8168 36.794 34.8174 36.6758 34.9062C36.3755 35.1491 36.1256 35.4266 35.8682 35.7129C35.8197 35.7665 35.7717 35.8207 35.7217 35.876C35.6922 35.9119 35.6622 35.9474 35.6318 35.9844C35.2392 36.2938 34.2968 36.2137 33.8076 36.252C33.3883 36.2856 32.9719 36.3308 32.5547 36.3848C31.8165 36.4786 31.0764 36.5402 30.335 36.6016C29.4244 36.677 28.5145 36.7563 27.6055 36.8486C27.5565 36.8536 27.5075 36.8591 27.457 36.8643C27.2099 36.8894 26.962 36.9141 26.7148 36.9395C25.4908 37.0651 24.266 37.1883 23.041 37.3047C22.9241 37.3158 22.8073 37.3276 22.6904 37.3389C22.5461 37.3524 22.4013 37.3648 22.2568 37.377C22.1016 37.3905 21.9476 37.4059 21.793 37.4238C21.2312 37.4828 20.8088 37.4156 20.2881 37.1836C20.1521 37.1271 20.016 37.0709 19.8799 37.0146C19.8134 36.9866 19.7472 36.9576 19.6787 36.9287C19.3867 36.8091 19.0888 36.7067 18.79 36.6055C18.6934 36.5727 18.5966 36.5399 18.5 36.5068C18.4604 36.4935 18.4207 36.4805 18.3799 36.4668C18.2559 36.4198 18.14 36.3628 18.0225 36.3018C18.0606 35.8275 18.167 35.3821 18.2852 34.9219C18.3121 34.8144 18.3123 34.8137 18.3398 34.7041C18.4297 34.3495 18.5237 33.9967 18.626 33.6455C18.7672 33.1564 18.8883 32.6622 19.0098 32.168C19.2111 31.3496 19.416 30.5329 19.6553 29.7246C19.6728 29.665 19.6725 29.6646 19.6904 29.6035C19.7246 29.4908 19.7625 29.3793 19.7998 29.2676C19.8777 28.9339 19.7829 28.6641 19.6602 28.3516C19.6346 28.2859 19.6093 28.22 19.583 28.1523C19.5562 28.0844 19.5286 28.0163 19.501 27.9463C19.4488 27.8129 19.3968 27.6794 19.3447 27.5459C19.3042 27.4422 19.3041 27.4417 19.2627 27.3359C19.1579 27.0652 19.0557 26.7935 18.9541 26.5215C18.7939 26.0929 18.6312 25.6647 18.4678 25.2373C18.4178 25.1065 18.3682 24.9756 18.3184 24.8447C18.1603 24.4308 17.9996 24.0174 17.834 23.6064C17.6673 23.1919 17.5109 22.7741 17.3574 22.3545C17.1755 21.8605 16.9928 21.3669 16.8027 20.876C16.7766 20.808 16.7767 20.8076 16.75 20.7383C16.682 20.5372 16.6811 20.5371 16.5625 20.3662C16.2869 21.5524 16.021 22.7405 15.7676 23.9316C15.6105 24.67 15.4511 25.4078 15.2861 26.1445C15.1021 26.9672 14.9226 27.7909 14.7461 28.6152C14.7343 28.67 14.7221 28.7248 14.71 28.7812C14.6764 28.9381 14.6429 29.0951 14.6094 29.252C14.5938 29.3247 14.594 29.3252 14.5781 29.3994C14.5237 29.655 14.4712 29.9113 14.4219 30.168C14.373 30.4018 14.3733 30.4021 14.3125 30.4629C14.2307 30.4756 14.1479 30.4847 14.0654 30.4922C14.0132 30.497 13.961 30.5018 13.9072 30.5068C13.8503 30.5118 13.7931 30.5163 13.7344 30.5215C13.6759 30.5268 13.6169 30.5326 13.5566 30.5381C13.4327 30.5493 13.3086 30.5603 13.1846 30.5713C12.9954 30.588 12.8063 30.6048 12.6172 30.6221C12.4967 30.6329 12.3754 30.6445 12.2549 30.6553C12.1986 30.6604 12.142 30.6656 12.084 30.6709C11.8122 30.6947 11.5447 30.7121 11.2715 30.7061C11.255 30.6484 11.2386 30.5906 11.2217 30.5312C11.2107 30.4928 11.1998 30.4537 11.1885 30.4141C11.1636 30.3269 11.1382 30.2395 11.1133 30.1523C11.0441 29.9101 10.9745 29.668 10.9053 29.4258C10.6663 28.5897 10.6666 28.5888 10.5566 28.2002C10.3899 27.6113 10.2151 27.0254 10.0352 26.4404C9.88391 25.9456 9.74429 25.4479 9.60645 24.9492C9.47129 24.4627 9.32583 23.9794 9.17676 23.4971C9.03468 23.0342 8.90632 22.5683 8.78125 22.1006C8.70454 21.8157 8.62406 21.5347 8.52734 21.2559C8.42773 20.9683 8.35297 20.6787 8.28223 20.3828C8.1074 19.6694 7.88976 18.9663 7.68262 18.2617C7.62118 18.0515 7.56094 17.8405 7.50098 17.6299C7.49973 17.6669 7.49836 17.704 7.49707 17.7422C7.44006 19.4304 7.38135 21.1188 7.31445 22.8066C7.27675 23.7622 7.24307 24.7181 7.21094 25.6738C7.20793 25.7631 7.20815 25.7632 7.20508 25.8545C7.18471 26.4593 7.16437 27.0641 7.14453 27.6689C7.13701 27.8974 7.12973 28.126 7.12207 28.3545C7.11853 28.4609 7.11476 28.5674 7.11133 28.6738C7.09239 29.2605 7.06595 29.8459 7.02734 30.4316C7.01064 30.7025 7.00197 30.9729 6.99707 31.2441C6.99595 31.2949 6.99432 31.3462 6.99316 31.3984C6.9885 31.6097 6.98468 31.821 6.98047 32.0322C6.96932 32.5795 6.95419 33.1234 6.90723 33.6689C6.8767 34.0858 6.86959 34.5041 6.8584 34.9219C6.85577 35.0149 6.85325 35.1082 6.85059 35.2012C6.84417 35.426 6.83808 35.6511 6.83203 35.876C6.38635 35.9238 5.93987 35.9712 5.49414 36.0186C5.28742 36.0405 5.08072 36.0628 4.87402 36.085C4.63589 36.1105 4.39735 36.1359 4.15918 36.1611C4.08523 36.1691 4.01076 36.1763 3.93457 36.1846C3.86527 36.1919 3.79601 36.1995 3.72461 36.207C3.66383 36.2135 3.60266 36.2199 3.54004 36.2266C3.35928 36.2408 3.18125 36.2426 3 36.2402C3.02357 35.9497 3.04738 35.6587 3.07129 35.3682C3.07933 35.2702 3.08776 35.1722 3.0957 35.0742C3.13853 34.5463 3.18455 34.0187 3.24219 33.4922C3.30958 32.8722 3.35669 32.2507 3.40332 31.6289C3.50639 30.2595 3.62822 28.8921 3.7627 27.5254C3.80226 27.1226 3.84008 26.7193 3.87793 26.3164C3.88838 26.2054 3.89958 26.0944 3.91016 25.9834C3.95316 25.5271 3.99161 25.0701 4.0293 24.6133C4.10362 23.7127 4.18551 22.8121 4.2666 21.9121C4.33683 21.132 4.40632 20.3519 4.4707 19.5713C4.54176 18.7124 4.6157 17.8536 4.69043 16.9951C4.71425 16.7214 4.73815 16.4475 4.76172 16.1738C4.78496 15.904 4.80848 15.634 4.83203 15.3643C4.84081 15.2633 4.84975 15.1624 4.8584 15.0615C4.91385 14.4152 4.98306 13.772 5.06836 13.1289C5.7463 13.0284 6.41727 12.9748 7.10156 12.9424C7.24661 12.9353 7.39208 12.9283 7.53711 12.9209C7.62596 12.9164 7.71484 12.9123 7.80371 12.9082C8.01388 12.8977 8.22206 12.8804 8.43066 12.8535C8.64083 12.8265 8.84015 12.8189 9.05176 12.8213C9.11492 12.8218 9.17809 12.8217 9.24316 12.8223C9.3136 12.8233 9.31413 12.8241 9.38574 12.8252C9.51589 13.1142 9.5814 13.4142 9.65234 13.7217C9.67227 13.8067 9.67205 13.8068 9.69238 13.8936C9.73239 14.0643 9.77186 14.2354 9.81152 14.4062C9.99673 15.1999 10.1885 15.9917 10.3945 16.7803C10.8594 18.5627 11.2931 20.353 11.7256 22.1436C11.7367 22.1896 11.7483 22.2357 11.7598 22.2832C11.8093 22.4884 11.859 22.6941 11.9082 22.8994C11.9986 23.275 12.0919 23.6497 12.1895 24.0234C12.2087 24.0975 12.2282 24.1718 12.248 24.248C12.2955 24.4067 12.3462 24.5408 12.4268 24.6846C12.4489 24.6095 12.4714 24.5344 12.4941 24.457C12.6568 23.9077 12.8245 23.3611 13.0078 22.8184C13.1436 22.4155 13.2746 22.0104 13.4043 21.6055C13.7291 20.5921 14.0584 19.5802 14.3877 18.5684C14.4802 18.2841 14.5726 17.9992 14.665 17.7148C14.7408 17.4818 14.8168 17.2487 14.8926 17.0156C14.9286 16.905 14.9641 16.7942 15 16.6836C15.2339 15.9639 15.4706 15.245 15.7109 14.5273C17.9131 14.1544 17.9137 14.1551 18.4482 14.1631C18.654 14.5936 18.8332 15.0314 19.0039 15.4766C19.1492 15.8543 19.3016 16.2294 19.4561 16.6035C19.6118 16.9813 19.7639 17.3594 19.9043 17.7432C20.1034 18.2867 20.3302 18.8191 20.5547 19.3525C20.6662 19.6179 20.7746 19.8849 20.8809 20.1523C20.9467 20.3168 21.0136 20.4807 21.0811 20.6445C21.1161 20.7297 21.1166 20.7305 21.1523 20.8174C21.2002 20.9335 21.2479 21.05 21.2959 21.166C21.4103 21.4444 21.5216 21.7212 21.6113 22.0088H21.6719C21.6859 21.9512 21.6994 21.8933 21.7139 21.834C21.8222 21.3934 21.936 20.9551 22.0596 20.5186C22.1821 20.0847 22.2933 19.6486 22.4014 19.2109C22.5032 18.7986 22.6077 18.3878 22.7246 17.9795C22.8842 17.4204 23.0222 16.8552 23.1621 16.291C23.3337 15.5993 23.5098 14.9101 23.7051 14.2246C23.9028 13.5191 24.0808 12.8078 24.2568 12.0967C24.3123 11.8731 24.3679 11.6492 24.4238 11.4258C24.4444 11.3434 24.4648 11.261 24.4854 11.1787C24.5001 11.1198 24.5151 11.0607 24.5303 11ZM26.9023 18.7246C26.8763 18.8362 26.8503 18.948 26.8242 19.0596C26.7785 19.2555 26.7322 19.4516 26.6865 19.6475C26.5989 20.0227 26.5111 20.3981 26.4238 20.7734C26.1986 21.7434 25.9705 22.7131 25.7393 23.6816C25.587 24.3194 25.4332 24.9568 25.29 25.5967C25.2059 25.9741 25.1184 26.3514 25.0283 26.7275C25.0144 26.7856 25.0008 26.842 24.9873 26.8984C24.9175 27.19 24.8478 27.482 24.7773 27.7734C24.7504 27.885 24.7231 27.9968 24.6963 28.1084C24.6833 28.1624 24.6708 28.2152 24.6582 28.2676C24.5716 28.6234 24.407 29.042 24.5166 29.3994C24.596 29.5546 24.5957 29.555 24.666 29.7412C24.6942 29.8129 24.7217 29.8826 24.749 29.9521C24.7946 30.0682 24.8402 30.1847 24.8857 30.3008C24.9173 30.3811 24.9489 30.4617 24.9805 30.542C25.0735 30.7788 25.1668 31.0161 25.2598 31.2529C25.1505 31.2579 25.0409 31.2629 24.9316 31.2686C24.8856 31.271 24.8406 31.274 24.7959 31.2764C24.73 31.2792 24.7298 31.2794 24.665 31.2822C24.621 31.2846 24.5779 31.2867 24.5352 31.2891C24.3838 31.2965 24.2456 31.3229 24.0967 31.3535C23.9222 31.4359 23.9221 31.4359 23.8447 31.5996C23.8295 31.6702 23.8145 31.7391 23.7998 31.8076C23.7734 31.9242 23.7468 32.0411 23.7227 32.1582C23.6983 32.2771 23.6717 32.3961 23.6455 32.5146C23.628 32.5935 23.6117 32.6705 23.5947 32.7471C23.5337 33.0331 23.4684 33.3173 23.3955 33.6006C23.3132 33.9121 23.2758 34.2174 23.2529 34.5381C23.8162 34.5468 24.3763 34.522 24.9385 34.4922C25.043 34.4866 25.1475 34.482 25.252 34.4766C25.4731 34.4652 25.6949 34.4539 25.916 34.4424C26.3883 34.4178 26.8606 34.3936 27.333 34.3701C27.5855 34.3576 27.8383 34.3446 28.0908 34.332C28.3954 34.3168 28.7003 34.3023 29.0049 34.2871C30.5544 34.2098 32.1039 34.1306 33.6533 34.0508C33.6533 33.8512 33.6165 33.7164 33.5117 33.5459C33.3355 33.3664 33.3351 33.3663 32.752 33.2295C32.6851 33.2142 32.6848 33.2142 32.6191 33.1992C32.3421 33.1344 32.0649 33.0704 31.7871 33.0088C31.4795 32.9408 31.1732 32.87 30.8682 32.791C30.5707 32.7137 30.2794 32.6406 29.9736 32.6064C29.9013 32.6013 29.831 32.5968 29.7607 32.5918C29.9049 32.3733 30.0515 32.1571 30.2041 31.9443C30.4673 31.5786 30.7288 31.2111 30.9883 30.8428C31.1052 30.6748 31.2217 30.5065 31.3418 30.3408C31.5007 30.1451 31.6644 29.964 31.7676 29.7324C31.7672 29.5796 31.731 29.4847 31.667 29.3457C31.6056 29.2252 31.5495 29.1018 31.4961 28.9775C31.3656 28.6693 31.2285 28.3637 31.0908 28.0586C31.0665 28.0047 31.0422 27.9527 31.0186 27.9004C30.9705 27.794 30.9231 27.6874 30.875 27.5811C30.7398 27.2847 30.6077 26.9883 30.4873 26.6855C30.3989 26.4619 30.3077 26.2401 30.2119 26.0195C30.1944 25.9795 30.1772 25.9402 30.1602 25.9014C30.0411 25.6292 29.9185 25.3603 29.7832 25.0957C29.4776 24.4434 29.4775 24.443 29.2129 23.7725C28.9933 23.2218 28.7629 22.6782 28.5127 22.1406C28.3556 21.804 28.1948 21.468 28.0566 21.123C27.977 20.9184 27.8972 20.716 27.8008 20.5186C27.6739 20.2706 27.5519 20.0248 27.4492 19.7656C27.3134 19.416 27.1684 19.0705 27.0234 18.7246H26.9023Z" fill="#E94A6B"/>
<path d="M31.7406 29.8318C31.7805 29.8318 31.8205 29.8318 31.8616 29.8318C31.9084 29.9229 31.955 30.0141 32.0015 30.1053C32.0275 30.1561 32.0534 30.2068 32.0802 30.2591C32.2442 30.5956 32.3824 30.9414 32.5195 31.2892C32.6436 31.601 32.7807 31.8993 32.9369 32.1968C33.0567 32.4434 33.1504 32.6995 33.2462 32.956C33.302 33.099 33.3623 33.2332 33.4346 33.3686C33.0106 33.3508 32.616 33.279 32.2059 33.1723C31.8446 33.0784 31.4813 32.9959 31.1167 32.9153C30.6762 32.8173 30.238 32.7157 29.8047 32.5893C29.8856 32.3329 30.0244 32.1489 30.1878 31.9394C30.3566 31.7228 30.5166 31.4999 30.6781 31.278C30.7125 31.2308 30.7469 31.1836 30.7823 31.135C30.9638 30.8855 31.1438 30.6351 31.3209 30.3825C31.5988 29.988 31.5988 29.988 31.7406 29.8318Z" fill="white"/>
<path d="M24.3757 29.2732C24.4167 29.2732 24.4577 29.2732 24.4998 29.2732C25.2444 30.9486 25.2444 30.9486 25.2444 31.2866C25.0855 31.3078 24.9265 31.3287 24.7674 31.3495C24.7227 31.3555 24.6779 31.3615 24.6318 31.3677C24.4 31.3978 24.1758 31.4199 23.9414 31.4124C23.9936 30.6845 24.2012 29.9788 24.3757 29.2732Z" fill="white"/>
<path d="M9.04278 12.7995C9.10603 12.8 9.16929 12.8006 9.23446 12.8011C9.30492 12.8022 9.30492 12.8022 9.3768 12.8033C9.50685 13.0929 9.57163 13.3936 9.6425 13.7017C9.65577 13.7584 9.66903 13.8152 9.6827 13.8736C9.72265 14.0447 9.76231 14.2158 9.80192 14.3869C9.98687 15.1817 10.1776 15.9747 10.3834 16.7644C10.8476 18.5495 11.2814 20.3423 11.7133 22.1355C11.7244 22.1817 11.7356 22.2279 11.747 22.2756C11.7965 22.4811 11.8459 22.6866 11.895 22.8922C11.9853 23.2685 12.0784 23.644 12.1759 24.0184C12.1952 24.0926 12.2144 24.1669 12.2342 24.2433C12.2817 24.4023 12.3328 24.5363 12.4134 24.6803C12.4355 24.6051 12.4575 24.5299 12.4803 24.4524C12.6427 23.9021 12.8104 23.3546 12.9935 22.8109C13.1291 22.4075 13.2594 22.0024 13.3889 21.5969C13.7132 20.5819 14.042 19.5684 14.3709 18.555C14.4633 18.2703 14.5556 17.9855 14.6478 17.7008C14.7235 17.4673 14.7993 17.2338 14.875 17.0003C14.9109 16.8894 14.9468 16.7786 14.9828 16.6678C15.2163 15.947 15.4529 15.2273 15.6929 14.5087C17.892 14.1352 17.892 14.1352 18.4258 14.1433C18.6313 14.5745 18.8097 15.0132 18.9802 15.4591C19.1253 15.8374 19.2775 16.2125 19.4317 16.5872C19.5873 16.9657 19.7393 17.3447 19.8795 17.7292C20.0784 18.2737 20.3049 18.8066 20.5291 19.3409C20.6406 19.607 20.7485 19.8744 20.8547 20.1426C20.9193 20.3037 20.9857 20.4639 21.0527 20.624C21.0872 20.7072 21.0872 20.7072 21.1225 20.7921C21.1694 20.9047 21.2165 21.0171 21.2639 21.1295C21.3332 21.2969 21.3979 21.4656 21.4624 21.6349C21.496 21.7116 21.496 21.7116 21.5304 21.7899C21.7208 22.2992 21.5517 22.7085 21.3867 23.1974C21.3088 23.4405 21.2493 23.6879 21.1891 23.9359C21.1766 23.9865 21.1641 24.0372 21.1512 24.0893C21.113 24.2444 21.0751 24.3996 21.0372 24.5547C20.8802 25.1969 20.7197 25.8372 20.541 26.4737C20.4096 26.9425 20.2884 27.4138 20.168 27.8856C20.146 27.9716 20.124 28.0576 20.102 28.1435C20.0492 28.3494 19.9966 28.5553 19.9441 28.7612C19.7619 28.7003 19.7619 28.7003 19.6912 28.5634C19.658 28.4737 19.658 28.4737 19.624 28.3822C19.5863 28.2819 19.5863 28.2819 19.5478 28.1796C19.522 28.109 19.4962 28.0383 19.4696 27.9656C19.432 27.8649 19.432 27.8649 19.3936 27.7623C19.3133 27.5473 19.2339 27.332 19.1546 27.1167C18.9211 26.488 18.6842 25.8606 18.4454 25.234C18.3954 25.1027 18.3455 24.9714 18.2955 24.8401C18.1377 24.4256 17.9779 24.0122 17.8125 23.6007C17.6461 23.1854 17.4897 22.7671 17.3364 22.3468C17.1547 21.852 16.9721 21.3577 16.7822 20.866C16.7561 20.7979 16.7561 20.7979 16.7295 20.7284C16.6616 20.527 16.6616 20.527 16.5431 20.3559C16.2679 21.5438 16.0024 22.7333 15.7493 23.9262C15.5924 24.6657 15.4324 25.4043 15.2678 26.1421C15.084 26.966 14.9051 27.791 14.7288 28.6165C14.717 28.6715 14.7053 28.7264 14.6932 28.783C14.6596 28.9402 14.6261 29.0974 14.5926 29.2546C14.5771 29.3275 14.5771 29.3275 14.5612 29.4018C14.5069 29.6578 14.4549 29.9141 14.4056 30.1711C14.3568 30.4057 14.3568 30.4057 14.296 30.4666C14.2143 30.4793 14.132 30.4884 14.0496 30.4959C13.9973 30.5008 13.945 30.5056 13.8911 30.5106C13.8341 30.5157 13.7771 30.5207 13.7184 30.5258C13.66 30.5312 13.6017 30.5365 13.5415 30.542C13.4176 30.5532 13.2937 30.5643 13.1698 30.5753C12.9808 30.5921 12.7918 30.6093 12.6028 30.6266C12.4825 30.6375 12.3622 30.6483 12.2419 30.6591C12.1855 30.6642 12.1291 30.6694 12.071 30.6746C11.7995 30.6985 11.5324 30.7163 11.2595 30.7102C11.243 30.6524 11.2265 30.5945 11.2095 30.5348C11.1985 30.4962 11.1875 30.4576 11.1762 30.4179C11.1513 30.3306 11.1264 30.2433 11.1016 30.156C11.0324 29.9132 10.9633 29.6705 10.8941 29.4278C10.6554 28.5905 10.6554 28.5905 10.5456 28.2013C10.3791 27.6114 10.2048 27.0244 10.0251 26.4384C9.87406 25.9428 9.73477 25.4444 9.5971 24.9449C9.46215 24.4577 9.31682 23.9743 9.16796 23.4913C9.02604 23.0276 8.89822 22.5608 8.7733 22.0923C8.6967 21.807 8.61555 21.5259 8.51897 21.2467C8.4195 20.9587 8.3455 20.669 8.27486 20.3727C8.10022 19.6579 7.88263 18.9535 7.6757 18.2476C7.61431 18.037 7.55404 17.8261 7.49413 17.615C7.49287 17.6522 7.49162 17.6895 7.49033 17.7278C7.43341 19.4185 7.37532 21.109 7.30853 22.7993C7.27088 23.7563 7.23727 24.7134 7.20518 25.6706C7.20217 25.7603 7.20217 25.7603 7.19909 25.8518C7.17875 26.4575 7.15852 27.0632 7.13871 27.669C7.1312 27.8978 7.12357 28.1266 7.11593 28.3555C7.11239 28.4622 7.1089 28.5688 7.10547 28.6755C7.08657 29.2631 7.05997 29.849 7.02142 30.4356C7.00473 30.7069 6.99609 30.9778 6.99119 31.2496C6.99008 31.3004 6.98896 31.3512 6.98781 31.4036C6.98315 31.6152 6.97894 31.8269 6.97474 32.0385C6.9636 32.5866 6.94833 33.1309 6.90143 33.6773C6.87094 34.0948 6.86383 34.5135 6.85265 34.9319C6.85002 35.0251 6.84737 35.1184 6.8447 35.2116C6.8383 35.4369 6.83212 35.6621 6.82608 35.8874C6.38105 35.9353 5.936 35.983 5.49091 36.0304C5.28422 36.0524 5.07754 36.0745 4.87087 36.0967C4.63301 36.1223 4.39512 36.1476 4.15722 36.1729C4.08338 36.1809 4.00954 36.1889 3.93346 36.1971C3.86418 36.2045 3.79491 36.2118 3.72353 36.2193C3.66284 36.2258 3.60215 36.2323 3.53963 36.239C3.35901 36.2533 3.1811 36.2552 3 36.2529C3.02355 35.9618 3.04728 35.6707 3.07117 35.3796C3.07922 35.2812 3.08723 35.1827 3.09519 35.0843C3.13797 34.5555 3.1844 34.0275 3.24198 33.5001C3.30928 32.8792 3.35618 32.2571 3.40275 31.6343C3.50566 30.2629 3.6272 28.894 3.76149 27.5254C3.801 27.122 3.83918 26.7184 3.87699 26.3148C3.88745 26.2034 3.89803 26.092 3.90861 25.9805C3.95156 25.5234 3.99053 25.0661 4.02816 24.6085C4.10238 23.7066 4.18362 22.8053 4.2646 21.904C4.33474 21.1226 4.40378 20.3412 4.46808 19.5593C4.53904 18.6992 4.61362 17.8394 4.68824 16.9796C4.71203 16.7056 4.73575 16.4315 4.75928 16.1574C4.78249 15.8871 4.80589 15.6169 4.8294 15.3467C4.83818 15.2455 4.8469 15.1443 4.85555 15.0431C4.91092 14.3958 4.9797 13.7518 5.06487 13.1078C5.74197 13.0071 6.41213 12.9538 7.09558 12.9213C7.24041 12.9142 7.38525 12.907 7.53007 12.8996C7.61909 12.895 7.70811 12.8907 7.79715 12.8865C8.00711 12.876 8.21464 12.8593 8.42302 12.8323C8.63288 12.8052 8.83148 12.7971 9.04278 12.7995Z" fill="white"/>
<path d="M34.7284 13.1714C35.212 14.2467 35.212 14.2467 35.4069 14.7462C35.4759 14.9135 35.5563 15.0735 35.6407 15.2335C35.7089 15.3716 35.7691 15.5123 35.8293 15.654C35.9541 15.9438 36.0847 16.2311 36.2135 16.5191C36.5049 17.1715 36.7915 17.8259 37.0748 18.4819C37.3092 19.0246 37.5477 19.5652 37.7976 20.101C37.9001 20.3237 37.9855 20.5257 38.0186 20.7712C38.0588 20.7712 38.099 20.7712 38.1405 20.7712C38.1544 20.7303 38.1684 20.6894 38.1828 20.6472C38.2838 20.4186 38.4177 20.224 38.5593 20.0188C38.7585 19.7287 38.9441 19.4371 39.1153 19.1296C39.1556 19.1296 39.1958 19.1296 39.2372 19.1296C39.2436 19.0955 39.25 19.0614 39.2566 19.0263C39.3059 18.8601 39.3814 18.7392 39.4757 18.5936C39.5302 18.5088 39.5302 18.5088 39.5859 18.4222C39.6241 18.3635 39.6624 18.3048 39.7018 18.2442C39.7386 18.1872 39.7755 18.1301 39.8134 18.0712C39.888 17.9556 39.9627 17.8402 40.0376 17.7248C40.1883 17.4913 40.3364 17.2562 40.4842 17.0209C40.564 16.9006 40.646 16.7941 40.7414 16.6863C40.8565 16.5466 40.9203 16.4479 40.9949 16.2887C41.1161 16.0414 41.259 15.8182 41.4155 15.5919C41.653 15.2424 41.8793 14.8879 42.0992 14.527C42.3175 14.1728 42.5446 13.8243 42.7711 13.4754C42.9708 13.5157 43.1271 13.589 43.305 13.6872C43.3625 13.7187 43.4199 13.7501 43.4791 13.7825C43.5408 13.8166 43.6025 13.8507 43.6661 13.8858C44.4382 14.308 45.2179 14.7142 46.0004 15.1169C46.0004 15.1771 46.0004 15.2373 46.0004 15.2993C45.9602 15.2993 45.92 15.2993 45.8786 15.2993C45.8627 15.3427 45.8469 15.3862 45.8305 15.4309C45.7529 15.6122 45.6594 15.7654 45.5511 15.9301C45.3875 16.182 45.2326 16.4353 45.0865 16.6977C45.0463 16.6977 45.0061 16.6977 44.9646 16.6977C44.9504 16.7495 44.9362 16.8013 44.9216 16.8547C44.8328 17.0889 44.7066 17.2711 44.5572 17.4691C44.5016 17.5447 44.4461 17.6203 44.3908 17.6961C44.3637 17.7331 44.3367 17.7702 44.3088 17.8083C44.1699 18.0025 44.0448 18.205 43.9181 18.4072C43.7889 18.6109 43.6556 18.8115 43.5214 19.0118C43.4831 19.0689 43.4831 19.0689 43.4441 19.1271C43.362 19.2496 43.2798 19.372 43.1977 19.4944C42.6894 20.2507 42.6894 20.2507 42.1923 21.0144C42.0257 21.2748 41.8567 21.5334 41.6844 21.7902C41.6264 21.8768 41.5685 21.9634 41.5107 22.0501C41.351 22.29 41.1905 22.5294 41.0282 22.7675C40.8802 22.9845 40.7333 23.2023 40.5869 23.4204C40.5276 23.5083 40.468 23.5959 40.4079 23.6833C40.3229 23.8073 40.2392 23.9321 40.1557 24.0571C40.1297 24.0943 40.1037 24.1315 40.0769 24.1699C39.9559 24.354 39.9062 24.4578 39.9183 24.6804C39.9681 24.8437 40.0244 24.9639 40.1169 25.1069C40.2944 25.3892 40.466 25.6742 40.6348 25.9618C40.6883 26.0527 40.7417 26.1436 40.7952 26.2345C40.8207 26.2779 40.8463 26.3214 40.8726 26.3662C40.9314 26.4661 40.9904 26.566 41.0494 26.6658C41.2908 27.0756 41.5245 27.4894 41.7582 27.9036C42.0012 28.3342 42.2476 28.762 42.5047 29.1844C42.7263 29.5496 42.9373 29.9207 43.1488 30.2919C43.4267 30.7788 43.7094 31.2627 43.9929 31.7464C44.2242 32.1413 44.4531 32.5374 44.679 32.9354C44.809 33.1603 44.9456 33.3809 45.0846 33.6003C45.1474 33.7212 45.1474 33.7212 45.1474 33.9036C44.9975 34.0175 44.8492 34.1186 44.6904 34.219C44.5908 34.2835 44.4911 34.348 44.3915 34.4126C44.3101 34.465 44.3101 34.465 44.227 34.5185C44.0356 34.643 43.846 34.77 43.6565 34.8975C43.5905 34.9419 43.5245 34.9863 43.4565 35.032C43.3254 35.1202 43.1944 35.2086 43.0635 35.297C43.0035 35.3372 42.9434 35.3774 42.8816 35.4188C42.8279 35.4549 42.7743 35.491 42.719 35.5283C42.5884 35.606 42.5884 35.606 42.4665 35.606C42.4464 35.6662 42.4263 35.7264 42.4056 35.7884C42.298 35.785 42.298 35.785 42.1618 35.7276C42.0742 35.5832 42.003 35.4471 41.9334 35.2944C41.8906 35.2049 41.8478 35.1154 41.8048 35.026C41.7832 34.9805 41.7616 34.9351 41.7393 34.8882C41.6422 34.6886 41.5368 34.4938 41.4307 34.2988C41.2406 33.9472 41.06 33.5916 40.8823 33.2336C40.7449 32.9578 40.6023 32.6853 40.4558 32.4141C40.2017 31.9429 39.9626 31.4648 39.7246 30.9853C39.401 30.3337 39.0732 29.685 38.7316 29.0426C38.4648 28.5394 38.2106 28.03 37.9577 27.5198C37.7813 27.6857 37.6482 27.8504 37.5207 28.0558C37.4678 28.1401 37.4678 28.1401 37.4139 28.226C37.3772 28.2851 37.3405 28.3443 37.3027 28.4052C37.0401 28.8229 36.775 29.2314 36.4784 29.6259C36.3274 29.8323 36.1929 30.048 36.0567 30.2643C35.934 30.4587 35.8099 30.6522 35.6842 30.8447C35.6442 30.9064 35.6043 30.9681 35.5631 31.0316C35.5118 31.099 35.5118 31.099 35.4595 31.1677C35.4193 31.1677 35.3791 31.1677 35.3377 31.1677C34.8502 30.1219 34.8502 30.1219 34.8502 29.8301C34.81 29.8301 34.7698 29.8301 34.7284 29.8301C34.6672 29.6706 34.6063 29.511 34.5456 29.3513C34.5281 29.306 34.5107 29.2606 34.4927 29.2138C34.3628 28.8711 34.3628 28.8711 34.3628 28.7358C34.3226 28.7358 34.2824 28.7358 34.2409 28.7358C34.2218 28.6793 34.2026 28.6227 34.1829 28.5645C34.0247 28.088 34.0247 28.088 33.7992 27.6414C33.6812 27.4396 33.6387 27.3275 33.6316 27.0942C33.7209 26.9398 33.8059 26.8168 33.9172 26.68C33.9791 26.6001 34.0409 26.52 34.1026 26.4399C34.1352 26.3982 34.1677 26.3565 34.2013 26.3135C34.3731 26.0893 34.5353 25.8584 34.6979 25.6274C34.7286 25.5843 34.7593 25.5411 34.7909 25.4966C34.914 25.3226 35.0313 25.1516 35.1377 24.9667C35.1635 24.9265 35.1893 24.8862 35.2158 24.8447C35.256 24.8447 35.2962 24.8447 35.3377 24.8447C35.3526 24.8018 35.3675 24.7589 35.3829 24.7148C35.4702 24.5165 35.5811 24.3606 35.7109 24.1873C35.755 24.128 35.7991 24.0686 35.8446 24.0075C35.8784 23.9628 35.9122 23.918 35.947 23.8719C35.6915 23.3502 35.4308 22.8371 35.1327 22.3379C35.0071 22.1257 34.8897 21.9096 34.7722 21.6929C34.0331 20.3369 33.2632 18.9974 32.5016 17.6541C32.4663 17.5919 32.4311 17.5297 32.3948 17.4656C32.3278 17.3475 32.2608 17.2293 32.1938 17.1112C32.0515 16.8602 31.9101 16.609 31.7709 16.3564C31.6699 16.1745 31.5649 15.9959 31.4557 15.8187C31.4156 15.7531 31.4156 15.7531 31.3746 15.6861C31.3196 15.5965 31.264 15.5072 31.208 15.4182C31.1817 15.3748 31.1554 15.3314 31.1283 15.2867C31.1043 15.2482 31.0804 15.2097 31.0558 15.1699C31.0116 15.0561 31.0116 15.0561 31.0198 14.9313C31.1962 14.5355 31.8567 14.321 32.2302 14.148C32.2856 14.122 32.341 14.096 32.3981 14.0692C32.9042 13.834 33.4177 13.6206 33.9363 13.4146C34 13.3882 34.0637 13.3618 34.1293 13.3345C34.1837 13.3121 34.2382 13.2896 34.2942 13.2664C34.3619 13.2383 34.3619 13.2383 34.4309 13.2096C34.5456 13.1714 34.5456 13.1714 34.7284 13.1714Z" fill="white"/>
</svg>
