<svg width="48" height="48" viewBox="0 0 48 48" fill="none" xmlns="http://www.w3.org/2000/svg">
<path d="M32.3 19.5C31.8582 19.5 31.5 19.8582 31.5 20.3V23.2C31.5 23.6418 31.1418 24 30.7 24H27.8C27.3582 24 27 24.3582 27 24.8V26.2C27 26.6418 27.3582 27 27.8 27H30.7C31.1418 27 31.5 27.3582 31.5 27.8V30.7C31.5 31.1418 31.8582 31.5 32.3 31.5H33.7C34.1418 31.5 34.5 31.1418 34.5 30.7V27.8C34.5 27.3582 34.8582 27 35.3 27H38.2C38.6418 27 39 26.6418 39 26.2V24.8C39 24.3582 38.6418 24 38.2 24H35.3C34.8582 24 34.5 23.6418 34.5 23.2V20.3C34.5 19.8582 34.1418 19.5 33.7 19.5H32.3ZM20.3 10.5C19.8582 10.5 19.5 10.8582 19.5 11.3V24.9407C19.5 25.5562 18.8231 25.9521 18.2357 25.7681C17.6867 25.5961 17.1048 25.5 16.5 25.5C13.185 25.5 10.5 28.185 10.5 31.5C10.5 34.815 13.185 37.5 16.5 37.5C19.815 37.5 22.5 34.815 22.5 31.5V17.3C22.5 16.8582 22.8582 16.5 23.3 16.5H27.7C28.1418 16.5 28.5 16.1418 28.5 15.7V11.3C28.5 10.8582 28.1418 10.5 27.7 10.5H20.3Z" fill="white"/>
</svg>
